<svg xmlns="http://www.w3.org/2000/svg" width="125" height="125" viewBox="0 0 259 259">
  <defs>
    <style>
      .om-logo { fill: rgb(25,118,210); }
    </style>
  </defs>
  <path id="ICON" data-name="ICON" class="om-logo" d="M33.868,73.7l91.9-54.568a44,44,0,0,1,60.3,15.369l54.568,91.9a44,44,0,0,1-15.369,60.3l-91.9,54.568a44,44,0,0,1-60.3-15.369L18.5,133.993A44,44,0,0,1,33.868,73.7Zm93.024,27.739a20.52,20.52,0,0,1-11.019,11.017,21.178,21.178,0,0,1-16.3,0,20.521,20.521,0,0,1-11.019-11.017,21.179,21.179,0,0,1,0-16.293A20.524,20.524,0,0,1,99.578,74.124a21.186,21.186,0,0,1,16.3,0,20.523,20.523,0,0,1,11.019,11.017A21.185,21.185,0,0,1,126.892,101.434Zm13.036-21.647a35.191,35.191,0,0,0-18.7-18.7,35.116,35.116,0,0,0-27.081,0,35.4,35.4,0,0,0-18.623,18.7,35.1,35.1,0,0,0,0,27.078,35.613,35.613,0,0,0,18.623,18.621,35.11,35.11,0,0,0,27.081,0,35.4,35.4,0,0,0,18.7-18.621A35.1,35.1,0,0,0,139.928,79.788Zm75.88,82.442L198,132.36a39.458,39.458,0,0,0-8.766-10.337,34.216,34.216,0,0,0-11.153-6.216,30.171,30.171,0,0,0-12.549-1.335,31.035,31.035,0,0,0-12.877,4.437,32.308,32.308,0,0,0-10.4,9.8,29.52,29.52,0,0,0-4.876,13.342,29.607,29.607,0,0,0-14.082-2.04,32.444,32.444,0,0,0-13.6,4.507,31.2,31.2,0,0,0-10.06,9.235,30.238,30.238,0,0,0-4.818,11.689,34.173,34.173,0,0,0,.148,12.776,39.353,39.353,0,0,0,4.92,12.63l17.8,29.868,12.347-7.36-17.805-29.868a28.019,28.019,0,0,1-3.106-7.324,19.257,19.257,0,0,1-.509-7.344,16.54,16.54,0,0,1,2.445-6.765A16.925,16.925,0,0,1,116.9,156.6a17.243,17.243,0,0,1,7.4-2.524,16.923,16.923,0,0,1,7.1.895,18.9,18.9,0,0,1,6.271,3.728,25,25,0,0,1,4.913,5.978l18.122,30.4,12.347-7.36L154.8,157.393a25.022,25.022,0,0,1-2.921-7.165,18.881,18.881,0,0,1-.3-7.29,16.892,16.892,0,0,1,2.591-6.672,17.219,17.219,0,0,1,5.74-5.311,16.948,16.948,0,0,1,7.575-2.537,16.593,16.593,0,0,1,7.114,1.067,20.464,20.464,0,0,1,6.284,3.9,26.292,26.292,0,0,1,5.032,6.176l17.805,29.869Z"/>
</svg>
