<svg xmlns="http://www.w3.org/2000/svg" width="320" height="125" viewBox="0 0 668 259">
<defs>
    <style>
      .om-logo { fill: rgb(25,118,210); }
    </style>
  </defs>
  <path id="orion" data-name="orion" class="om-logo" d="M343.892,103.434a20.52,20.52,0,0,1-11.019,11.017,21.178,21.178,0,0,1-16.3,0,20.52,20.52,0,0,1-11.019-11.017,21.185,21.185,0,0,1,0-16.293,20.523,20.523,0,0,1,11.019-11.017,21.186,21.186,0,0,1,16.3,0,20.523,20.523,0,0,1,11.019,11.017A21.185,21.185,0,0,1,343.892,103.434Zm13.036-21.647a35.191,35.191,0,0,0-18.7-18.7,35.117,35.117,0,0,0-27.081,0,35.4,35.4,0,0,0-18.623,18.7,35.1,35.1,0,0,0,0,27.078,35.615,35.615,0,0,0,18.623,18.621,35.111,35.111,0,0,0,27.081,0,35.4,35.4,0,0,0,18.7-18.621A35.1,35.1,0,0,0,356.928,81.788ZM403.1,60.374a33.337,33.337,0,0,0-13.5,2.715,32.966,32.966,0,0,0-10.785,7.526,36.082,36.082,0,0,0-7.217,11.173,34.881,34.881,0,0,0-2.638,13.5V130.2h13.5V95.288a20.476,20.476,0,0,1,1.629-8.147,20.822,20.822,0,0,1,4.423-6.595,21.059,21.059,0,0,1,6.518-4.422,19.909,19.909,0,0,1,8.07-1.629V60.374Zm38.8,55.708a20.442,20.442,0,0,1-8.147-1.63,20.134,20.134,0,0,1-6.6-4.5,20.617,20.617,0,0,1-4.345-6.672,21.315,21.315,0,0,1-1.552-8.147v-34.6h-13.5v34.6a35.541,35.541,0,0,0,9.855,24.782,33.91,33.91,0,0,0,10.785,7.526,32.8,32.8,0,0,0,13.5,2.762V116.081Zm-21.8-72.621a6.715,6.715,0,0,0-5.2-2.328,6.479,6.479,0,0,0-5.122,2.328,7.909,7.909,0,0,0,0,10.552,6.479,6.479,0,0,0,5.122,2.328,6.715,6.715,0,0,0,5.2-2.328A7.691,7.691,0,0,0,420.091,43.46Zm75.89,59.974a20.522,20.522,0,0,1-11.018,11.017,21.18,21.18,0,0,1-16.3,0,20.522,20.522,0,0,1-11.018-11.017,21.173,21.173,0,0,1,0-16.293,20.526,20.526,0,0,1,11.018-11.017,21.188,21.188,0,0,1,16.3,0,20.526,20.526,0,0,1,11.018,11.017A21.173,21.173,0,0,1,495.981,103.434Zm13.036-21.647a35.185,35.185,0,0,0-18.7-18.7,35.117,35.117,0,0,0-27.081,0,35.4,35.4,0,0,0-18.623,18.7,35.1,35.1,0,0,0,0,27.078,35.615,35.615,0,0,0,18.623,18.621,35.111,35.111,0,0,0,27.081,0,35.394,35.394,0,0,0,18.7-18.621A35.1,35.1,0,0,0,509.017,81.788ZM590.881,130.2V95.288a34.064,34.064,0,0,0-2.716-13.5,35.191,35.191,0,0,0-18.7-18.7,35.114,35.114,0,0,0-27.08,0,35.392,35.392,0,0,0-18.623,18.7,34.012,34.012,0,0,0-2.716,13.5V130.2h14.122V95.288a20.459,20.459,0,0,1,1.63-8.147,20.526,20.526,0,0,1,11.018-11.017,21.186,21.186,0,0,1,16.295,0,20.523,20.523,0,0,1,11.019,11.017,20.476,20.476,0,0,1,1.63,8.147V130.2h14.122Z"/>
  <path id="demai" data-name="media" class="om-logo" d="M381.727,210.354V175.581a39.464,39.464,0,0,0-2.236-13.368,34.217,34.217,0,0,0-6.4-11.05A30.181,30.181,0,0,0,363,143.59a31.051,31.051,0,0,0-13.334-2.782,32.3,32.3,0,0,0-13.952,3.091,29.543,29.543,0,0,0-11.02,8.964,29.6,29.6,0,0,0-11.051-8.964,32.464,32.464,0,0,0-13.988-3.091,31.194,31.194,0,0,0-13.369,2.782,30.248,30.248,0,0,0-10.124,7.573,34.185,34.185,0,0,0-6.415,11.05,39.344,39.344,0,0,0-2.241,13.368v34.773H281.88V175.581a27.991,27.991,0,0,1,1.081-7.882,19.254,19.254,0,0,1,3.324-6.568,16.544,16.544,0,0,1,5.564-4.559,16.919,16.919,0,0,1,7.805-1.7,17.233,17.233,0,0,1,7.651,1.623,16.916,16.916,0,0,1,5.642,4.4,18.874,18.874,0,0,1,3.477,6.414,25.009,25.009,0,0,1,1.16,7.65v35.391h14.374L331.8,174.963a25.009,25.009,0,0,1,1.16-7.65,18.874,18.874,0,0,1,3.477-6.414,16.9,16.9,0,0,1,5.642-4.4,17.218,17.218,0,0,1,7.651-1.623,16.936,16.936,0,0,1,7.805,1.7,16.593,16.593,0,0,1,5.564,4.559,20.443,20.443,0,0,1,3.4,6.568,26.271,26.271,0,0,1,1.159,7.882v34.773h14.065Zm60.433-29.209V169.554H405.837a19.21,19.21,0,0,1,2.55-6.491,16.393,16.393,0,0,1,4.251-4.559,19.6,19.6,0,0,1,5.255-2.7,17.514,17.514,0,0,1,5.564-.927h32.3V140.808h-32.3a30.634,30.634,0,0,0-23.416,10.355,34.56,34.56,0,0,0-6.569,11.05,38.2,38.2,0,0,0-2.318,13.368,38.824,38.824,0,0,0,2.318,13.445,34.186,34.186,0,0,0,6.492,11.05,30.693,30.693,0,0,0,10.124,7.5,31.194,31.194,0,0,0,13.369,2.782h37.25V196.29h-37.25a18.629,18.629,0,0,1-11.051-3.709q-5.18-3.709-6.723-11.436H442.16Zm81.685,2.55a20.437,20.437,0,0,1-10.974,10.972,21.1,21.1,0,0,1-16.229,0A20.437,20.437,0,0,1,485.668,183.7a20.371,20.371,0,0,1-1.623-8.114V154.872h20.712a20.389,20.389,0,0,1,8.114,1.623,20.437,20.437,0,0,1,10.974,10.972A21.094,21.094,0,0,1,523.845,183.7Zm12.983-21.559A35.042,35.042,0,0,0,518.2,143.513a33.931,33.931,0,0,0-13.447-2.705H469.98v34.773a33.7,33.7,0,0,0,2.7,13.523,35.464,35.464,0,0,0,18.547,18.545,34.97,34.97,0,0,0,26.972,0A35.253,35.253,0,0,0,536.828,189.1,34.96,34.96,0,0,0,536.828,162.136ZM582.81,196.29a20.368,20.368,0,0,1-8.114-1.623,20.054,20.054,0,0,1-6.569-4.482,20.524,20.524,0,0,1-4.328-6.645,21.242,21.242,0,0,1-1.546-8.114V140.963H548.806v34.463a35.411,35.411,0,0,0,9.815,24.682,33.774,33.774,0,0,0,10.742,7.5,32.675,32.675,0,0,0,13.447,2.751V196.29Zm-21.716-72.327a6.688,6.688,0,0,0-5.178-2.318,6.45,6.45,0,0,0-5.1,2.318,7.873,7.873,0,0,0,0,10.509,6.45,6.45,0,0,0,5.1,2.318,6.688,6.688,0,0,0,5.178-2.318A7.658,7.658,0,0,0,561.094,123.963Zm78.752,51.618a20.371,20.371,0,0,1-1.623,8.114,20.437,20.437,0,0,1-10.974,10.972,21.1,21.1,0,0,1-16.229,0A20.437,20.437,0,0,1,600.046,183.7a21.094,21.094,0,0,1,0-16.228A20.437,20.437,0,0,1,611.02,156.5a20.368,20.368,0,0,1,8.114-1.623h20.712v20.709Zm14.065,34.773V140.808H619.134a33.743,33.743,0,0,0-13.524,2.705,35.256,35.256,0,0,0-18.548,18.623,34.96,34.96,0,0,0,0,26.968,35.47,35.47,0,0,0,18.548,18.545,33.709,33.709,0,0,0,13.524,2.705,34.215,34.215,0,0,0,10.9-1.778,36.075,36.075,0,0,0,9.815-5.022v6.8h14.065Z"/>
  <path id="ICON" data-name="ICON" class="om-logo" d="M33.868,73.7l91.9-54.568a44,44,0,0,1,60.3,15.369l54.568,91.9a44,44,0,0,1-15.369,60.3l-91.9,54.568a44,44,0,0,1-60.3-15.369L18.5,133.993A44,44,0,0,1,33.868,73.7Zm93.024,27.739a20.52,20.52,0,0,1-11.019,11.017,21.178,21.178,0,0,1-16.3,0,20.521,20.521,0,0,1-11.019-11.017,21.179,21.179,0,0,1,0-16.293A20.524,20.524,0,0,1,99.578,74.124a21.186,21.186,0,0,1,16.3,0,20.523,20.523,0,0,1,11.019,11.017A21.185,21.185,0,0,1,126.892,101.434Zm13.036-21.647a35.191,35.191,0,0,0-18.7-18.7,35.116,35.116,0,0,0-27.081,0,35.4,35.4,0,0,0-18.623,18.7,35.1,35.1,0,0,0,0,27.078,35.613,35.613,0,0,0,18.623,18.621,35.11,35.11,0,0,0,27.081,0,35.4,35.4,0,0,0,18.7-18.621A35.1,35.1,0,0,0,139.928,79.788Zm75.88,82.442L198,132.36a39.458,39.458,0,0,0-8.766-10.337,34.216,34.216,0,0,0-11.153-6.216,30.171,30.171,0,0,0-12.549-1.335,31.035,31.035,0,0,0-12.877,4.437,32.308,32.308,0,0,0-10.4,9.8,29.52,29.52,0,0,0-4.876,13.342,29.607,29.607,0,0,0-14.082-2.04,32.444,32.444,0,0,0-13.6,4.507,31.2,31.2,0,0,0-10.06,9.235,30.238,30.238,0,0,0-4.818,11.689,34.173,34.173,0,0,0,.148,12.776,39.353,39.353,0,0,0,4.92,12.63l17.8,29.868,12.347-7.36-17.805-29.868a28.019,28.019,0,0,1-3.106-7.324,19.257,19.257,0,0,1-.509-7.344,16.54,16.54,0,0,1,2.445-6.765A16.925,16.925,0,0,1,116.9,156.6a17.243,17.243,0,0,1,7.4-2.524,16.923,16.923,0,0,1,7.1.895,18.9,18.9,0,0,1,6.271,3.728,25,25,0,0,1,4.913,5.978l18.122,30.4,12.347-7.36L154.8,157.393a25.022,25.022,0,0,1-2.921-7.165,18.881,18.881,0,0,1-.3-7.29,16.892,16.892,0,0,1,2.591-6.672,17.219,17.219,0,0,1,5.74-5.311,16.948,16.948,0,0,1,7.575-2.537,16.593,16.593,0,0,1,7.114,1.067,20.464,20.464,0,0,1,6.284,3.9,26.292,26.292,0,0,1,5.032,6.176l17.805,29.869Z"/>
</svg>
