<svg version="1" xmlns="http://www.w3.org/2000/svg" width="682.667" height="682.667" viewBox="0 0 512.000000 512.000000"><path d="M275.5 27.7c-3.8.8-10.2 2.7-14.1 4.2-4 1.6-50 28.2-104 60.2l-96.9 57.4-9.6 9.5c-17 16.8-24.7 33.9-25.7 57.1-.5 14.9.6 22.9 5.1 34.9 2.3 6 19.1 35.2 58.2 101 30.1 50.9 56.7 95.2 58.9 98.5 11.7 17.5 29.3 30 50.1 35.6 6.2 1.7 11 2.2 21.5 2.3 15.4.1 25.3-2 37-7.7 3.6-1.8 49-28.5 100.9-59.2 85-50.4 95.1-56.7 102.3-63.4 16.4-15.3 25-32.2 27.8-54.2.9-7.2.9-11.8.1-18.9-2.4-19.6-2.3-19.5-64-123.5-31-52.3-58.8-98.2-61.8-102.2-19.2-25.4-54.3-38.4-85.8-31.6zm-42 90.7c11.2 3.6 19.7 8.9 28.5 17.6 28.6 28.4 26.3 75.9-4.9 101.6-23.2 19.2-56.3 21.4-81.1 5.3-13.2-8.5-22.5-20.1-28.3-35.1-3-8-3.2-8.9-3.2-23.3s.2-15.3 3.2-23.3c8.7-22.6 28.2-39.8 50.8-44.7 10.2-2.2 24.8-1.4 35 1.9zm113.3 108.7c2.6.6 9 3.1 14.2 5.6 8 3.9 10.7 5.8 18 13.2 7.8 7.9 10.1 11.3 27 39.6 10.1 17 19 32 19.8 33.1 1.2 2.1.8 2.5-10.9 9.4-9.5 5.6-12.3 6.9-13 5.9-.5-.8-9.1-15.1-19.1-31.9-20.1-33.7-25-39.9-35.5-44.8-8.4-3.8-19.4-3.8-27.6.2-7.9 3.8-15 11.1-17.6 18.1-2.8 7.3-2.8 18.1-.2 25.8 1.1 3.2 10.5 19.8 20.8 37 10.3 17.1 18.9 31.6 19.1 32.2.2.9-23.7 16-24.3 15.3-.1-.2-9-14.9-19.6-32.7-20.9-35-24.6-39.8-34.6-44.8-5.1-2.4-6.9-2.8-14.8-2.8-8.4 0-9.5.2-15.3 3.4-15.9 8.7-22.1 25.5-15.8 43.1 1.2 3.6 10.7 20.6 21 37.9 15.3 25.5 18.5 31.6 17.4 32.6-1.9 1.8-21.7 13.5-22.8 13.5-1 0-33.7-54.5-38.8-64.5-7.3-14.5-9.8-31.4-6.8-45.5 5-23.8 25.2-43.5 49.8-48.4 9.7-2 15.4-2 24.3 0 3.9.9 7.6 1.6 8.3 1.7.9.1 2-2.3 3.3-7.1 5.3-20.8 22.5-37.9 44.4-44.3 7-2 22.3-2.5 29.3-.8z"/><path d="M199.6 146c-7.8 2.8-13.8 7-18.6 13.1-16.2 20.5-9 50.9 14.8 62.2 6.2 3 7.5 3.2 17.2 3.2s11-.2 17.3-3.2c12.4-5.9 20.4-16.8 22.8-31 1.6-9.2-.6-19.7-6-28-4.7-7.2-8.8-10.8-17.1-14.7-8.7-4.1-21.4-4.7-30.4-1.6z"/></svg>