<svg version="1" xmlns="http://www.w3.org/2000/svg" width="1240" height="1240" viewBox="0 0 930.000000 930.000000"><path d="M521 2.6c-19.5 2.4-39 8-55.5 15.8-9.8 4.7-372.3 219.1-387 228.9-19.4 13-38.3 32.6-51.2 53.2-5.1 8.1-14 27.3-17.3 37.3-13.8 42.6-10.8 88.6 8.4 128.7 4.8 10 217.7 369.8 228.5 386 16.9 25.7 41.6 46.9 70 60.2 48.9 23 105.5 22.3 152.6-1.7 14.1-7.2 376.4-222.4 387-229.9 11.3-7.9 33.7-30.6 41.2-41.6 22.2-32.9 32.3-67.2 31-106-.9-26.5-6.9-50.4-18.6-73.2C904.3 448.9 686.4 82.9 680 73.8c-8.3-11.9-26.8-30.4-39-39-12-8.5-31.4-18.6-44.9-23.2-18.2-6.3-32-8.7-53.1-9.1-10.2-.2-20.1-.1-22 .1zM405.8 185c27.5 5.6 49.6 17.4 69.8 37.5 27.1 26.9 40.7 59.5 40.7 97.5 0 37-13.3 69.5-39.3 96.1-20.4 20.8-47.4 34.9-75.8 39.5-11.2 1.8-32.6 2-42.7.4-38.6-6.1-72.1-27.4-93.7-59.4-10.7-16-16.9-30.7-21-49.9-3-14.5-3-38.9 0-53.4 5.9-27.4 17.3-49.1 36.4-68.8 27.6-28.7 63.1-43.3 102.4-42 7.6.2 17.3 1.3 23.2 2.5zm226.7 219c38.7 4.5 74.7 27.6 98.2 63 6.7 10.2 74.3 123.7 74.3 124.9 0 1.4-46.1 28.5-46.9 27.5-.5-.5-16.5-27.2-35.6-59.4-19.2-32.2-36.6-61.2-38.9-64.5-2.2-3.3-7.4-9.4-11.5-13.5-30.5-30.4-70.3-31.6-100.5-3-8.3 7.9-13.6 16.3-17.3 27.5-2.3 7-2.6 9.6-2.6 21 0 11.2.4 14.2 2.7 21.9 1.4 4.8 4.4 12.2 6.5 16.5 2.1 4.2 19.7 33.9 39.1 66.1 19.4 32.2 35.5 59.2 35.7 60 .3 1.1-6.7 5.7-23.4 15.7-13.1 7.8-23.8 14.1-23.9 14-.1-.1-16.2-27.2-35.9-60.2-41.1-68.9-40.5-68-48.6-76.9-14.9-16.2-33.1-24.6-53.4-24.6-11.4 0-19.8 2-30.1 7-19.1 9.5-32.5 25.7-37 44.8-2.5 10.5-1.5 29.2 2.1 40.2 4.1 12.7 7.3 18.5 45.4 82.4 19.3 32.4 35.1 59.2 35.1 59.7 0 1.3-47.3 29-48 28.2-1.7-1.8-70.8-118.6-75.1-126.8-5.8-10.9-11.2-26.2-14.1-39.9-3-14.2-3.1-38.9-.1-52.6 7.1-32.2 24.5-58 51.5-76 25.2-16.9 54.6-24.8 81.8-22 10.9 1 23.2 3.7 30.3 6.5 2.9 1.2 3.8 1.2 4.1.3.2-.7 1.1-5.3 2-10.3 10.3-53.7 63-97 120.1-98.4 2.8 0 9 .4 14 .9z"/><path d="M367.5 238c-27.6 4.3-50.2 20.5-62.1 44.5-6.5 13.2-8.6 22.3-8.6 37.5 0 24.4 8.2 43.4 26 60.2 8.8 8.3 18 13.8 30.2 18 9.2 3.1 10.1 3.3 25.5 3.3 14 0 16.9-.3 23.5-2.3 27.7-8.8 47.2-28.1 56-55.7 3.4-10.6 3.9-31 1.1-42.7-8.6-36.4-38.9-61.4-76.5-63.2-5-.3-11.8-.1-15.1.4z"/></svg>